<svg xmlns="http://www.w3.org/2000/svg" viewBox="0 0 512.001 512.001" xml:space="preserve" fill="#fff">
  <path d="M50.753 134.196a68.6 68.6 0 0 0 17.783 2.355c11.827 0 23.501-3.098 34.014-9.173 11.375-6.562 20.565-16.239 26.573-27.964a8.53 8.53 0 0 0-3.703-11.486c-4.19-2.142-9.335-.495-11.486 3.703-4.506 8.798-11.392 16.051-19.917 20.966-11.836 6.844-25.634 8.661-38.844 5.111-13.21-3.541-24.252-12.006-31.087-23.851C9.972 69.411 18.378 38.034 42.817 23.92a51.3 51.3 0 0 1 9.404-4.224c-8.969 17.63-8.909 39.202 1.425 57.096a59.64 59.64 0 0 0 22.682 22.34 8.53 8.53 0 0 0 11.605-3.311c2.295-4.122.802-9.318-3.311-11.605a42.6 42.6 0 0 1-16.196-15.957c-10.095-17.476-6.477-39.868 8.602-53.239a8.53 8.53 0 0 0 2.389-9.207A8.52 8.52 0 0 0 71.788.121C58.621-.545 45.65 2.578 34.284 9.14 1.695 27.965-9.509 69.795 9.307 102.393c9.113 15.795 23.833 27.085 41.446 31.803m94.464-100.061h8.533v8.533a8.536 8.536 0 0 0 8.533 8.533 8.536 8.536 0 0 0 8.533-8.533v-8.533h8.533a8.536 8.536 0 0 0 8.533-8.533 8.536 8.536 0 0 0-8.533-8.533h-8.533V8.535a8.536 8.536 0 0 0-8.533-8.533 8.536 8.536 0 0 0-8.533 8.533v8.533h-8.533a8.536 8.536 0 0 0-8.533 8.533c0 4.711 3.823 8.534 8.533 8.534m93.867 34.133c0 4.71 3.823 8.533 8.533 8.533s8.533-3.823 8.533-8.533c4.71 0 8.533-3.823 8.533-8.533s-3.823-8.533-8.533-8.533c0-4.71-3.823-8.533-8.533-8.533s-8.533 3.823-8.533 8.533c-4.71 0-8.533 3.823-8.533 8.533s3.822 8.533 8.533 8.533M353.542 93.68l-101.871 62.507c-4.019 2.466-5.274 7.723-2.807 11.733 1.604 2.628 4.412 4.07 7.279 4.07a8.5 8.5 0 0 0 4.454-1.254l101.862-62.507c4.019-2.466 5.282-7.723 2.816-11.733-2.466-4.019-7.714-5.282-11.733-2.816m-29.125 288.051V277.514a8.536 8.536 0 0 0-8.533-8.533 8.536 8.536 0 0 0-8.533 8.533v106.487c0 1.485.384 2.944 1.126 4.233L376.744 507.7a8.52 8.52 0 0 0 7.415 4.301 8.43 8.43 0 0 0 4.224-1.126 8.525 8.525 0 0 0 3.174-11.639zM222.384 174.218l-21.453 14.029c-3.951 2.577-5.052 7.868-2.475 11.81a8.52 8.52 0 0 0 7.151 3.866 8.53 8.53 0 0 0 4.668-1.391l21.453-14.037c3.951-2.577 5.052-7.868 2.475-11.81a8.526 8.526 0 0 0-11.819-2.467m67.9 120.712c0-4.71-3.823-8.533-8.533-8.533s-8.533 3.823-8.533 8.533v86.801l-67.14 117.504a8.526 8.526 0 0 0 3.174 11.639 8.43 8.43 0 0 0 4.224 1.126 8.52 8.52 0 0 0 7.415-4.301l68.267-119.467a8.5 8.5 0 0 0 1.126-4.233z"/>
  <path d="m509.539 141.561-76.8-133.026A16.98 16.98 0 0 0 422.371.582a17.03 17.03 0 0 0-12.945 1.707l-29.551 17.067a16.97 16.97 0 0 0-7.962 10.359 16.97 16.97 0 0 0 1.707 12.954l55.467 96.077c2.355 4.07 7.569 5.478 11.657 3.123 4.079-2.355 5.478-7.578 3.123-11.657L388.4 34.135l29.559-17.067 76.8 133.026-29.56 17.067-4.267-7.39c-.265-.452-.666-.742-.99-1.126-.393-.461-.725-.99-1.195-1.348-.393-.307-.862-.452-1.306-.674-.529-.282-1.024-.631-1.604-.785-.521-.154-1.067-.111-1.613-.154-.546-.051-1.075-.179-1.63-.119-.589.068-1.143.35-1.724.538-.478.162-.964.196-1.425.444L134.625 328.46a8.47 8.47 0 0 1-6.477.853 8.48 8.48 0 0 1-5.171-3.977l-8.533-14.771v-.008c0-.009-.009-.009-.009-.009l-34.133-59.119a8.5 8.5 0 0 1-.853-6.468c.589-2.202 2.005-4.045 4.164-5.299L360.172 70.137c4.028-2.466 5.282-7.723 2.825-11.733-2.466-4.019-7.723-5.282-11.733-2.816L74.894 225c-5.922 3.413-10.155 8.934-11.93 15.539a25.46 25.46 0 0 0 2.56 19.422l4.267 7.398-49.374 28.501-4.25-7.339c-2.364-4.079-7.569-5.495-11.656-3.132a8.547 8.547 0 0 0-3.123 11.665l34.108 59.068v.009l8.559 14.822a8.54 8.54 0 0 0 7.398 4.267 8.47 8.47 0 0 0 4.258-1.143c4.087-2.355 5.478-7.569 3.123-11.656l-4.292-7.433 49.382-28.51 4.267 7.39c3.422 5.922 8.934 10.155 15.539 11.921 2.227.597 4.48.888 6.716.888 4.403 0 8.73-1.135 12.535-3.345l307.337-167.817.102.179c3.166 5.47 8.909 8.525 14.814 8.525 2.893 0 5.82-.734 8.499-2.278l29.568-17.067c8.141-4.719 10.949-15.181 6.238-23.313M46.009 340.2l-17.058-29.551 49.374-28.51 17.067 29.551zm252.808 69.401a8.536 8.536 0 0 0-8.533 8.533v68.267a8.536 8.536 0 0 0 8.533 8.533 8.536 8.536 0 0 0 8.533-8.533v-68.267c.001-4.71-3.822-8.533-8.533-8.533"/>
</svg>
